<svg width="64" height="64" viewBox="0 0 64 64" xmlns="http://www.w3.org/2000/svg">
  <rect width="64" height="64" rx="16" fill="#020617"/>
  <path d="M18 38c0-11 7-20 18-22 7 4 11 11 10 19-1 9-8 15-17 15-5 0-9-2-11-5 7 1 15-3 18-10-6 3-12 4-18 3z" fill="#22d3ee"/>
  <path d="M21 42c7 6 18 6 26-1-2 8-9 14-18 14-7 0-13-5-15-11 2 0 4-1 7-2z" fill="#34d399"/>
  <text x="32" y="35" text-anchor="middle" font-family="Arial, Helvetica, sans-serif" font-size="16" font-weight="700" fill="#020617">AI</text>
</svg>
